<?xml version="1.0" encoding="UTF-8" standalone="no"?>
<svg
   xmlns:dc="http://purl.org/dc/elements/1.1/"
   xmlns:cc="http://creativecommons.org/ns#"
   xmlns:rdf="http://www.w3.org/1999/02/22-rdf-syntax-ns#"
   xmlns:svg="http://www.w3.org/2000/svg"
   xmlns="http://www.w3.org/2000/svg"
   xmlns:xlink="http://www.w3.org/1999/xlink"
   xmlns:sodipodi="http://sodipodi.sourceforge.net/DTD/sodipodi-0.dtd"
   xmlns:inkscape="http://www.inkscape.org/namespaces/inkscape"
   version="1.1"
   encoding="UTF-8"
   standalone="no"
   width="360"
   height="310"
   id="svg116"
   sodipodi:docname="harbour_sfml.svg"
   inkscape:version="0.92.5 (2060ec1f9f, 2020-04-08)"
   inkscape:export-filename="/home/harbour/bitmap.png"
   inkscape:export-xdpi="96"
   inkscape:export-ydpi="96">
  <metadata
     id="metadata122">
    <rdf:RDF>
      <cc:Work
         rdf:about="">
        <dc:format>image/svg+xml</dc:format>
        <dc:type
           rdf:resource="http://purl.org/dc/dcmitype/StillImage" />
      </cc:Work>
    </rdf:RDF>
  </metadata>
  <defs
     id="defs120">
    <linearGradient
       id="linearGradient4987">
      <stop
         id="stop4989"
         offset="0"
         stop-color="#a9ee52" />
      <stop
         id="stop4991"
         offset="1"
         stop-color="#53880e" />
    </linearGradient>
    <linearGradient
       x1="85.311884"
       y1="4.4186206"
       x2="85.311884"
       y2="206.79123"
       id="linearGradient4885"
       xlink:href="#linearGradient4987"
       gradientTransform="scale(1.0141828,0.98601554)"
       gradientUnits="userSpaceOnUse" />
    <linearGradient
       x1="66.224087"
       y1="8.1075806"
       x2="66.224087"
       y2="177.97501"
       id="linearGradient4923"
       xlink:href="#linearGradient4987"
       gradientTransform="scale(1.3076795,0.76471339)"
       gradientUnits="userSpaceOnUse" />
  </defs>
  <sodipodi:namedview
     pagecolor="#ffffff"
     bordercolor="#666666"
     borderopacity="1"
     objecttolerance="10"
     gridtolerance="10"
     guidetolerance="10"
     inkscape:pageopacity="0"
     inkscape:pageshadow="2"
     inkscape:window-width="1848"
     inkscape:window-height="1016"
     id="namedview118"
     showgrid="false"
     inkscape:zoom="2.7032258"
     inkscape:cx="180"
     inkscape:cy="155"
     inkscape:window-x="72"
     inkscape:window-y="27"
     inkscape:window-maximized="1"
     inkscape:current-layer="svg116" />
  <g
     transform="matrix(1.25,0,0,-1.25,3.54473,306.06245) scale(0.1,0.1)"
     id="g114">
    <path
       fill="#9f0e22"
       d="M 2803.1,245.621 C 2366.5,162.035 1424.12,192.449 303.559,348.641 377.477,317.289 434.195,281.641 502.855,237.172 1600.62,81.8008 2321.76,86.8594 2747.34,178.066 c 38.85,21.957 43.91,37.157 55.76,67.555 l 0,0"
       id="path86" />
    <path
       fill="#4997d9"
       d="m 750.84,519.199 c -3.262,-8.187 -6.348,-15.597 -9.176,-22.133 120.332,30.688 225.27,104.942 343.086,35.821 15.74,220.496 47.34,458.816 171.17,807.113 4.24,87.85 10.44,177.85 18.72,275.68 -32.94,-389.52 -32.94,-655.742 -4.41,-1155.153 -153.8,24.028 -431.277,6.567 -566.007,-45.722 10.98,25.562 26.933,61.226 46.617,104.394"
       id="path88" />
    <path
       fill="#225aa6"
       d="M 1264.75,2259.18 C 874.328,1732.13 422.793,1043.55 272.227,812.516 422.793,1043.55 874.328,1732.13 1264.75,2259.18"
       id="path90" />
    <path
       fill="#0974c5"
       d="m 558.344,742.5 c 206.461,87.387 255.051,179.547 421.461,166.676 51.215,535.044 176.585,737.284 298.165,1058.394 -99.69,-165.17 -197.96,-330.05 -290.65,-486.98 0.004,0.03 0.016,0.07 0.02,0.1 98.45,166.7 203.2,342.34 309.27,517.76 C 1111.74,1507.86 1069.98,777.684 1069.98,599.125 994.473,638.547 729.516,620.547 420.367,496.168 c 25.957,48.164 73.844,133.75 137.977,246.332 m 157.988,274.88 0.02,0 C 673.578,943.52 633.977,874.75 598.266,812.398 c 35.687,62.329 75.324,131.157 118.066,204.982"
       id="path92" />
    <path
       fill="#095fa8"
       d="M 1264.75,2259.18 C 968.824,1847.07 953.434,1191.32 953.434,1012.76 733.383,1076.58 489.125,948.957 272.227,812.516 422.793,1043.55 874.328,1732.13 1264.75,2259.18"
       id="path94" />
    <g
       fill="#09397f"
       id="g102">
      <path
         d="M 2792.65,267.379 C 2399.82,192.129 1581.42,221.758 566.953,338.188 468.238,349.551 184.496,383.785 14.0039,405.801 4.73828,420.977 0,445.41 0,475.102 632.199,407.871 2233.08,205.469 2784.55,310.383 c 2.5,-11.766 8.83,-18.098 8.1,-43.004 l 0,0"
         id="path96" />
      <path
         d="m 785.875,601.973 c 1.082,0.179 2.16,0.367 3.242,0.547 -13.808,-29.848 -26.586,-57.637 -38.09,-82.868 -0.066,-0.148 -0.125,-0.3 -0.187,-0.453 -19.684,-43.168 -35.637,-78.832 -46.617,-104.394 134.73,52.289 412.207,69.75 566.007,45.722 -28.35,496.391 -28.52,762.423 3.82,1148.123 0.2,0.4 0.4,0.78 0.59,1.17 -32.94,-389.51 -27.09,-673.285 1.45,-1172.785 -153.81,24.121 -454.598,0.813 -589.328,-51.48 19.199,44.738 54.55,121.613 99.113,216.418"
         id="path98" />
      <path
         d="m 769.867,0 c 0.821,1.01562 1.688,2.12109 2.567,3.125 45.586,54.125 131.164,99.047 254.516,94.6836 240.49,-8.4375 443.31,-25.0391 809.32,-7.0547 -360,9.1445 -798.36,47.1291 -1326.653,121.9301 C 640.898,136.34 750.098,21.3906 769.867,0 l 0,0"
         id="path100" />
    </g>
    <path
       d="m 1134.71,1330.7 c 56.28,116.28 105.94,217.58 139.93,284.98 -33.99,-67.4 -83.65,-168.7 -139.93,-284.98 l 0,0"
       id="path104" />
    <path
       d="m 751.027,519.652 c 11.504,25.231 24.282,53.02 38.09,82.868 136.246,22.773 238.443,18.75 280.863,-3.395 0,105.563 14.6,403.905 64.73,731.575 56.28,116.28 105.94,217.58 139.93,284.98 -8.28,-97.83 -14.48,-187.83 -18.72,-275.68 -123.83,-348.297 -155.43,-586.617 -171.17,-807.113 -117.816,69.121 -222.754,-5.133 -343.086,-35.821 2.883,6.661 6.031,14.219 9.363,22.586"
       id="path106" />
    <path
       d="M 598.266,812.398 C 584.34,788.078 571.035,764.781 558.344,742.5 l -0.008,-0.004 c 12.691,22.27 26.012,45.594 39.93,69.902"
       id="path108" />
    <path
       d="m 598.266,812.398 c -13.926,-24.32 -27.231,-47.617 -39.922,-69.898 12.691,22.281 25.996,45.578 39.922,69.898"
       id="path110" />
    <path
       d="m 598.266,812.398 c 35.711,62.352 75.312,131.122 118.086,204.982 80.535,16.61 160.261,17.66 237.082,-4.62 0,80.69 3.144,258.8 33.886,467.83 92.69,156.93 190.96,321.81 290.65,486.98 -121.58,-321.11 -246.95,-523.35 -298.165,-1058.394 -166.41,12.871 -215,-79.289 -421.461,-166.676 12.691,22.281 25.996,45.578 39.922,69.898"
       id="path112" />
  </g>
  <g
     id="g217"
     transform="matrix(1.1363636,0,0,1.1363636,183.35832,102.84043)"
     inkscape:export-xdpi="96"
     inkscape:export-ydpi="96">
    <g
       id="g14">
      <title
         id="title16">background</title>
      <rect
         x="-1"
         y="-1"
         width="132"
         height="132"
         id="canvas_background"
         style="fill:none" />
    </g>
    <g
       id="g19">
      <title
         id="title21">Layer 1</title>
      <path
         d="M 84.545998,17.273001 88.432,20.0963 l 3.885902,2.823299 3.886002,2.823301 3.886096,2.823299 3.886,2.823299 3.886,2.823299 c 19.73801,14.509003 17.411,20.329002 12.008,36.958 l -1.485,4.568199 -1.484,4.5681 -1.484,4.5681 -1.485,4.568199 -1.484,4.568199 -1.484,4.568405 C 103.265,121.835 97.010003,121.42099 79.525804,121.42099 H 50.7068 C 26.209802,121.285 24.671802,115.208 19.268802,98.579999 l -1.484301,-4.568405 -1.484301,-4.568199 -1.484299,-4.568199 -1.484301,-4.5681 -1.484301,-4.568199 -1.4844,-4.568199 c -7.4402,-23.34 -2.1364,-26.681 12.007999,-36.958 l 3.8859,-2.823299 3.886,-2.823301 3.885902,-2.823299 3.885899,-2.8234 3.885998,-2.823299 3.886002,-2.823299 C 65.584602,2.9838 70.401603,6.995801 84.5456,17.2729 Z"
         id="path6382"
         inkscape:connector-curvature="0"
         style="fill:url(#linearGradient4885)" />
      <path
         d="m 7.188,57.469002 c 0.372391,3.668098 1.403501,8.090996 3.1875,13.687996 l 1.468801,4.593803 1.499999,4.5625 1.468801,4.5625 1.5,4.5625 1.4688,4.5625 1.5,4.593796 c 5.403,16.629003 6.9408,22.676003 31.437998,22.812003 h 28.812 c 17.484001,0 23.738001,0.4429 31.438001,-22.812003 l 1.4688,-4.593796 1.5,-4.5625 1.4688,-4.5625 1.125,-3.468803 C 71.937501,76.815003 33.8215,68.362999 7.192501,57.464001 Z"
         id="path4909"
         inkscape:connector-curvature="0"
         style="fill:url(#linearGradient4923)" />
      <g
         id="g3366"
         style="fill:#ffffff">
        <path
           d="m 85.397003,28.201 -4.0625,15.593998 1.062599,0.781303 2.687294,1.9375 2.687607,1.968697 2.687393,1.9375 2.687607,1.968803 2.875,2.062397 c 2.360596,1.611702 3.110199,2.436802 3.343697,2.6563 -0.081,0.27935 -0.306702,1.283901 -1.25,4.1875 l -1.031303,3.1875 -1.031197,3.156303 -1.031197,3.156197 -1.031303,3.156204 -1,3.156296 -1.031303,3.1875 -1.031197,3.156204 -1.031197,3.156296 -1.031303,3.156303 -1.0933,3.375 c -0.812897,2.775299 -1.371597,3.723297 -1.5,4 -0.356102,0.009 -1.315201,0.094 -4.374901,0.094 H 48.429508 c -2.861698,0.084 -3.932999,-0.116005 -4.25,-0.156303 -0.099,-0.251442 -0.471397,-0.888611 -1.4375,-4.156197 l -1.0313,-3.156204 -1.0312,-3.156296 -1.031197,-3.156303 -1.031303,-3.156197 -1.0313,-3.1875 -1.0312,-3.156303 -1,-3.156197 -1.031197,-3.156204 -1.031303,-3.156296 -1.093197,-3.375004 c -0.9795,-2.739201 -1.098301,-3.8344 -1.1563,-4.125 0.226299,-0.181408 0.7323,-0.667999 3.468597,-2.6563 l 2.687599,-1.937401 2.7187,-1.9688 2.6875,-1.9375 2.6875,-1.9687 2.6875,-1.9375 1.0312,-0.75 -4.062401,-15.594 -0.4063,0.281301 -2.6875,1.9687 -2.6875,1.9375 -2.6875,1.9688 -2.7188,1.9375 -2.687298,1.9687 -2.687601,1.9688 -2.687401,1.9375 c -3.213099,2.334301 -6.683409,4.2644 -8.687609,9.124901 -1.979401,4.8008 -0.851101,9.498997 0.969109,14.625 l 1.031,3.156097 1.03129,3.156303 1.0313,3.156197 1.0312,3.1875 1.03121,3.156303 1.03129,3.156197 1.0313,3.156204 1,3.156296 1.0312,3.1875 1.03121,3.156204 c 1.227201,3.777101 1.996702,7.685601 5.999891,11.093991 3.9487,3.36151 8.758808,3.70821 14.188,3.5625 h 33.250999 c 3.971397,0 7.927704,0.47311 12.405998,-2.28129 4.415001,-2.7154 6.273906,-7.17021 7.812496,-12.375003 l 1.0308,-3.156204 1,-3.1875 1.03121,-3.156296 1.03119,-3.156204 1.03131,-3.156197 1.03129,-3.156303 1.03121,-3.1875 1.03109,-3.156197 1.03131,-3.156303 1,-3.156296 c 1.22709,-3.777 2.92309,-7.389503 1.6875,-12.5 -1.2183,-5.038902 -4.8991,-8.1777 -9.3749,-11.25 l -2.6875,-1.9375 -2.718707,-1.968803 -2.687599,-1.968697 -2.687401,-1.9375 -2.687599,-1.968803 -2.687401,-1.9375 -2.687599,-1.968699 -0.437401,-0.3125 -0.0025,-2.99e-4 z"
           id="path6354"
           inkscape:connector-curvature="0" />
        <path
           d="m 64.526001,17.176001 c -4.308399,0.26351 -7.9562,2.579399 -11.719002,5.4688 -0.036,0.027 -0.061,0.065 -0.094,0.094 l 10.312,39.704002 4.5,9.9e-5 10.344002,-39.704002 -0.094,-0.094 c -3.213005,-2.3342 -6.133003,-5.0334 -11.375,-5.4375 -0.645401,-0.05 -1.259499,-0.069 -1.875,-0.031 l 9.99e-4,-3.99e-4 z"
           id="path6356"
           inkscape:connector-curvature="0" />
      </g>
    </g>
  </g>
</svg>
